<svg width="20" height="20" viewBox="0 0 20 20" fill="none" xmlns="http://www.w3.org/2000/svg">
<path fill-rule="evenodd" clip-rule="evenodd" d="M10.0077 1.14996C5.02666 1.14996 1 5.20631 1 10.2246C1 14.2359 3.58002 17.6314 7.15918 18.8332C7.60667 18.9236 7.77059 18.638 7.77059 18.3977C7.77059 18.1873 7.75584 17.4662 7.75584 16.7149C5.25012 17.2559 4.72833 15.6331 4.72833 15.6331C4.32565 14.5814 3.729 14.3111 3.729 14.3111C2.90888 13.7552 3.78873 13.7552 3.78873 13.7552C4.69846 13.8153 5.17582 14.6867 5.17582 14.6867C5.981 16.0688 7.27848 15.6783 7.80046 15.4379C7.87495 14.8519 8.11372 14.4463 8.36724 14.221C6.36875 14.0106 4.26609 13.2294 4.26609 9.74369C4.26609 8.7521 4.62379 7.94083 5.19057 7.30989C5.10115 7.08458 4.78789 6.15291 5.28018 4.90595C5.28018 4.90595 6.04074 4.66552 7.75565 5.83743C8.48987 5.6388 9.24705 5.53775 10.0077 5.5369C10.7682 5.5369 11.5435 5.64218 12.2595 5.83743C13.9746 4.66552 14.7351 4.90595 14.7351 4.90595C15.2274 6.15291 14.914 7.08458 14.8246 7.30989C15.4063 7.94083 15.7492 8.7521 15.7492 9.74369C15.7492 13.2294 13.6466 13.9955 11.6331 14.221C11.9613 14.5064 12.2445 15.0472 12.2445 15.9036C12.2445 17.1205 12.2298 18.0972 12.2298 18.3975C12.2298 18.638 12.3939 18.9236 12.8412 18.8334C16.4204 17.6312 19.0004 14.2359 19.0004 10.2246C19.0151 5.20631 14.9737 1.14996 10.0077 1.14996Z" fill="#0A3C61"/>
</svg>
