<svg width="20" height="20" viewBox="0 0 20 20" fill="none" xmlns="http://www.w3.org/2000/svg">
<path d="M19.9983 20H15.8573V13.5037C15.8573 11.9546 15.8297 9.96046 13.7036 9.96046C11.5468 9.96046 11.2168 11.6483 11.2168 13.3909V19.9996H7.07586V6.6406H11.0512V8.46624H11.1068C11.5047 7.78483 12.0796 7.22427 12.7703 6.84426C13.461 6.46425 14.2416 6.27903 15.0291 6.30831C19.2262 6.30831 20 9.07378 20 12.6715L19.9983 20ZM2.40348 4.81452C1.9282 4.8146 1.46356 4.67351 1.06833 4.40906C0.673106 4.14462 0.365057 3.76871 0.183096 3.32888C0.0011362 2.88904 -0.0465507 2.40503 0.046088 1.93805C0.138727 1.47107 0.367527 1.0421 0.703539 0.705377C1.03955 0.368656 1.4677 0.139309 1.93383 0.0463402C2.39996 -0.0466283 2.88313 0.000956897 3.32226 0.183078C3.7614 0.365198 4.13675 0.673674 4.40088 1.0695C4.665 1.46532 4.80602 1.93072 4.80611 2.40683C4.80616 2.72295 4.74406 3.03599 4.62334 3.32808C4.50263 3.62016 4.32569 3.88557 4.10258 4.10914C3.87948 4.33272 3.61458 4.51008 3.32305 4.63111C3.03152 4.75214 2.71906 4.81446 2.40348 4.81452ZM4.47396 20H0.328688V6.6406H4.47396V20Z" fill="#05385E"/>
</svg>
