<svg width="12" height="12" viewBox="0 0 12 12" fill="none" xmlns="http://www.w3.org/2000/svg">
<path d="M5.99998 0.000183105C5.79288 0.000183105 5.62498 0.168076 5.62498 0.375183V1.51923C4.66615 1.59897 3.79195 1.97913 3.09741 2.56732L2.28733 1.75725C2.21973 1.68955 2.12881 1.65024 2.03318 1.64738C2.02268 1.64718 2.01217 1.64743 2.00169 1.64813C1.90949 1.65315 1.82239 1.69201 1.75706 1.75726C1.61064 1.90371 1.61064 2.14111 1.75706 2.28755L2.56714 3.09763C1.97895 3.79216 1.59878 4.66636 1.51905 5.6252H0.375C0.167893 5.6252 0 5.79309 0 6.0002C0 6.20731 0.167893 6.3752 0.375 6.3752H1.51905C1.59879 7.33404 1.97895 8.20824 2.56714 8.90278L1.75706 9.71285C1.61064 9.85929 1.61064 10.0967 1.75706 10.2431C1.9035 10.3896 2.14091 10.3896 2.28735 10.2431L3.09742 9.43306C3.79196 10.0213 4.66616 10.4014 5.625 10.4812V11.6252C5.625 11.8323 5.79289 12.0002 6 12.0002C6.20711 12.0002 6.375 11.8323 6.375 11.6252V10.4812C7.33384 10.4014 8.20804 10.0213 8.90257 9.43306L9.71265 10.2431C9.85909 10.3896 10.0965 10.3896 10.2429 10.2431C10.3894 10.0967 10.3894 9.85929 10.2429 9.71285L9.43286 8.90278C10.0211 8.20824 10.4012 7.33404 10.4809 6.3752H11.625C11.8321 6.3752 12 6.20731 12 6.0002C12 5.79309 11.8321 5.6252 11.625 5.6252H10.4809C10.4012 4.66636 10.0211 3.79216 9.43286 3.09763L10.2429 2.28755C10.3894 2.14111 10.3894 1.90371 10.2429 1.75726C10.1753 1.68956 10.0844 1.65026 9.98879 1.6474C9.97804 1.64718 9.96729 1.64743 9.95656 1.64815C9.86462 1.65335 9.77781 1.69219 9.71267 1.75728L8.90259 2.56736C8.20805 1.97917 7.33385 1.599 6.37502 1.51927V0.37522C6.37502 0.168113 6.20709 0.000183105 5.99998 0.000183105Z" fill="#05385E"/>
</svg>
