<svg width="115" height="93" viewBox="0 0 115 93" fill="none" xmlns="http://www.w3.org/2000/svg">
<path d="M37.5465 81.1252C36.4583 81.1252 35.4634 81.2127 34.486 81.1077C31.3351 80.7722 29.783 78.2281 31.0142 75.3281C31.5043 74.1757 32.1783 73.0496 32.9806 72.0868C35.9098 68.5537 36.1957 64.4779 35.3525 60.268C35.0637 58.8209 34.1651 57.4146 33.2723 56.1893C32.4554 55.069 31.2388 54.2491 30.2527 53.2426C29.2228 52.1865 28.1084 51.1653 27.3002 49.9517C25.8065 47.7081 26.1857 45.485 28.1375 43.6644C29.9114 42.0073 32.1841 41.911 34.3168 43.4719C34.9937 43.9679 35.5772 44.598 36.1694 45.202C36.7121 45.7563 37.1876 46.3748 37.7245 46.9379C40.569 49.9167 42.8184 50.2697 46.4157 48.2974C47.4047 47.7548 48.3238 47.0604 49.3566 46.6228C50.509 46.1327 51.7285 45.6746 52.9568 45.52C54.6256 45.3099 56.0172 46.0539 56.8166 47.5797C57.5898 49.0589 57.2484 50.5381 56.236 51.7313C55.4775 52.6241 54.503 53.3885 53.4994 54.007C52.3032 54.7422 50.9816 55.279 49.7008 55.8713C44.4464 58.3016 42.5792 62.7858 42.1941 68.1802C42.1882 68.2503 42.1941 68.3203 42.197 68.3932C42.3224 70.7243 43.4282 72.3494 45.3158 72.9795C47.0926 73.5747 49.1086 72.8687 50.4652 70.9635C51.2763 69.8257 51.8335 68.507 52.5016 67.2671C53.301 65.7791 54.0071 64.227 54.9173 62.8091C56.3236 60.6239 58.2637 59.0164 60.7086 58.0448C62.6195 57.2863 64.5568 57.1696 66.5086 57.8056C67.9177 58.2666 69.2773 58.8792 70.7039 59.2731C71.7747 59.5707 72.93 59.8362 74.0182 59.7457C76.8307 59.5094 78.2019 56.7495 76.854 54.2725C76.1451 52.9742 75.0102 52.1485 73.6915 51.5709C72.4632 51.0341 71.1882 50.6052 69.9746 50.0363C66.8966 48.595 65.8259 46.5644 66.281 43.2151C66.3948 42.3778 66.5465 41.5347 66.5436 40.6944C66.5319 37.9811 64.9331 36.2248 62.2198 36.2948C60.7144 36.3327 59.1915 36.855 57.7298 37.3247C56.1894 37.8178 54.7306 38.5646 53.1989 39.0927C50.8357 39.9096 48.3879 40.2072 45.8935 39.9067C40.4757 39.2561 37.1789 35.1424 37.8032 29.7188C38.1796 26.4482 39.3378 23.3907 41.0738 20.6191C42.2262 18.7781 43.5945 17.0393 45.0678 15.4434C46.8942 13.4624 49.3128 12.4325 51.956 12.0037C54.0391 11.6652 56.0581 11.8899 57.8319 13.1473C60.6852 15.1663 60.6998 18.8744 57.7444 20.7329C56.4607 21.5381 54.8911 21.8969 53.4381 22.4221C52.4462 22.7809 51.4134 23.0348 50.4331 23.4228C49.8496 23.6533 49.2953 23.9946 48.7935 24.3768C46.8533 25.8531 46.2465 27.9537 47.1918 29.7625C48.0874 31.4751 50.0422 32.1841 52.347 31.4897C53.5548 31.125 54.7306 30.6086 55.8597 30.0368C58.3396 28.7852 60.9099 27.8603 63.6669 27.4665C63.807 27.446 63.9441 27.4139 64.0841 27.3877C69.0439 26.4074 69.8433 25.5584 70.5464 20.5199C70.6252 19.9626 70.701 19.3996 70.8265 18.8511C71.5704 15.5747 74.0007 14.1568 77.1895 15.2363C78.4499 15.6651 79.6519 16.2982 80.8248 16.9401C87.0945 20.3769 93.8222 20.9575 100.766 20.1873C102.849 19.9568 104.635 18.9328 106.411 17.897C107.441 17.299 108.506 16.6688 109.638 16.3508C112.932 15.4317 115.698 18.0342 114.878 21.363C114.554 22.673 113.801 23.9946 112.914 25.0303C110.642 27.6911 107.61 29.0565 104.124 28.9719C101.6 28.9135 99.0767 28.4905 96.5676 28.1404C93.5655 27.7203 90.5867 27.1047 87.5729 26.775C85.8341 26.5854 84.0369 26.635 82.2952 26.8421C78.4791 27.2943 75.8562 29.8792 75.2173 33.6516C74.4734 38.0424 75.3953 41.9373 78.7913 45.0298C79.9378 46.0743 81.0873 47.1246 82.2923 48.0991C85.5686 50.754 87.1353 54.0741 86.4847 58.3337C85.945 61.8609 86.1259 65.3386 86.9486 68.8338C87.9756 73.2013 86.3009 76.7169 83.0071 79.5585C81.9101 80.5038 80.6468 81.0902 79.153 81.0785C76.3551 81.0581 74.5288 78.8992 75.0569 76.1625C75.2027 75.4069 75.5266 74.6892 75.7746 73.954C75.9992 73.2859 76.2939 72.6353 76.4485 71.9526C77.0583 69.2451 75.7016 67.0541 72.9446 66.7361C71.302 66.5464 69.5165 66.634 67.9381 67.0949C66.0038 67.6609 64.1133 68.5712 62.4007 69.6477C60.4402 70.8818 58.6692 72.4252 56.8691 73.9015C55.7109 74.8526 54.7919 76.0196 54.4418 77.5367C54.1296 78.8787 54.4184 80.0837 55.4162 81.0348C56.4548 82.0238 57.7123 82.0413 58.9726 81.5395C59.6233 81.2798 60.2243 80.8947 60.8428 80.5534C61.4584 80.212 62.0448 79.8036 62.6837 79.5118C64.2504 78.797 65.8171 78.5986 67.2409 79.8444C68.5421 80.9852 68.9155 82.8611 68.1132 84.7137C67.7573 85.5394 67.2292 86.3271 66.634 87.004C65.9396 87.7946 65.1432 88.5182 64.2971 89.1454C61.1287 91.494 59.0135 94.5837 57.6627 98.251C57.3213 99.1758 56.9771 100.124 56.4578 100.953C55.8655 101.895 55.1711 102.823 54.3455 103.564C53.1085 104.675 51.6059 105.037 50.0217 104.293C48.4259 103.543 47.3551 102.251 47.4573 100.486C47.536 99.1262 48.0583 97.7667 48.5338 96.4625C48.9189 95.4093 49.5754 94.4611 50.0276 93.4283C51.2383 90.68 50.7249 88.1681 48.7993 85.9478C45.8089 82.4994 42.1824 80.4717 37.5407 81.1252" fill="#0A3C61"/>
<mask id="path-2-inside-1_732_9598" fill="white">
<path d="M16.6279 78.0036C15.3793 77.5572 14.0343 77.2801 12.9023 76.6324C10.0781 75.0161 7.23066 73.4844 4.11185 72.5012C3.71215 72.3758 3.33287 72.1657 2.96527 71.9615C-0.0806069 70.2839 -0.815818 67.6465 0.925932 64.6677C0.960942 64.6064 0.990117 64.5393 1.03388 64.4868C4.7041 60.0989 7.14605 55.0429 9.18247 49.7417C10.0285 47.5361 11.6419 45.8002 13.5412 44.3823C15.4288 42.9761 17.4244 42.8681 19.0349 44.0322C20.7212 45.2488 21.3922 47.3873 20.7445 49.5054C20.1085 51.5914 18.7694 53.2311 17.3544 54.8153C16.272 56.0231 15.0437 57.1172 14.0693 58.4038C13.2757 59.4512 12.5901 60.6532 12.1612 61.8902C11.6011 63.5095 12.348 65.4117 13.5704 66.2402C14.8045 67.0805 16.663 66.9113 18.075 65.7063C18.9853 64.9303 19.7584 63.9996 20.6133 63.1623C22.3958 61.4147 24.4002 60.9741 25.9319 61.9719C27.5628 63.0339 28.2046 65.2629 27.3439 67.4656C25.9873 70.9462 23.7758 73.8608 20.9954 76.329C19.7934 77.3968 18.3288 77.8957 16.6221 78.0153"/>
</mask>
<path d="M12.9023 76.6324L12.6125 77.1388L12.6125 77.1389L12.9023 76.6324ZM4.11185 72.5012L4.28728 71.9447L4.28658 71.9445L4.11185 72.5012ZM2.96527 71.9615L3.24864 71.4514L3.24677 71.4504L2.96527 71.9615ZM0.925932 64.6677L1.42967 64.9622L1.43255 64.9572L0.925932 64.6677ZM1.03388 64.4868L0.586305 64.1125L0.585622 64.1133L1.03388 64.4868ZM9.18247 49.7417L9.72716 49.951L9.72726 49.9507L9.18247 49.7417ZM13.5412 44.3823L13.1926 43.9144L13.1922 43.9147L13.5412 44.3823ZM19.0349 44.0322L18.6931 44.5051L18.6935 44.5054L19.0349 44.0322ZM20.7445 49.5054L20.1865 49.3348L20.1864 49.3353L20.7445 49.5054ZM17.3544 54.8153L17.7889 55.2047L17.7896 55.204L17.3544 54.8153ZM14.0693 58.4038L14.5344 58.7562L14.5344 58.7561L14.0693 58.4038ZM12.1612 61.8902L11.6099 61.6991L11.6098 61.6995L12.1612 61.8902ZM13.5704 66.2402L13.8988 65.7579L13.8978 65.7572L13.5704 66.2402ZM18.075 65.7063L17.6965 65.2623L17.6963 65.2625L18.075 65.7063ZM20.6133 63.1623L21.0216 63.5791L21.0217 63.5789L20.6133 63.1623ZM25.9319 61.9719L25.6134 62.4608L25.6135 62.4609L25.9319 61.9719ZM27.3439 67.4656L26.8005 67.2532L26.8003 67.2537L27.3439 67.4656ZM20.9954 76.329L20.6081 75.8926L20.6079 75.8927L20.9954 76.329ZM16.6279 78.0036L16.8244 77.4542C16.1944 77.229 15.499 77.0327 14.9018 76.8386C14.2799 76.6364 13.7057 76.4198 13.1921 76.1259L12.9023 76.6324L12.6125 77.1389C13.2309 77.4926 13.8951 77.7385 14.541 77.9484C15.2114 78.1664 15.8128 78.3319 16.4315 78.5531L16.6279 78.0036ZM12.9023 76.6324L13.1921 76.126C10.3642 74.5075 7.47033 72.9482 4.28728 71.9447L4.11185 72.5012L3.93641 73.0577C6.99099 74.0207 9.79209 75.5247 12.6125 77.1388L12.9023 76.6324ZM4.11185 72.5012L4.28658 71.9445C3.95314 71.8398 3.62542 71.6607 3.24864 71.4514L2.96527 71.9615L2.6819 72.4715C3.04033 72.6707 3.47116 72.9117 3.93711 73.0579L4.11185 72.5012ZM2.96527 71.9615L3.24677 71.4504C1.81705 70.6629 1.00504 69.6937 0.712222 68.6455C0.41962 67.5982 0.613538 66.358 1.42964 64.9622L0.925932 64.6677L0.42222 64.3732C-0.503425 65.9562 -0.812776 67.5241 -0.411741 68.9595C-0.0109261 70.3942 1.06762 71.5825 2.68377 72.4726L2.96527 71.9615ZM0.925932 64.6677L1.43255 64.9572C1.44626 64.9332 1.45837 64.9105 1.46689 64.8944C1.47665 64.876 1.48182 64.8662 1.48726 64.8563C1.49828 64.8364 1.49553 64.8443 1.48214 64.8604L1.03388 64.4868L0.585622 64.1133C0.528462 64.1819 0.489251 64.2496 0.465987 64.2916C0.424984 64.3658 0.44243 64.3377 0.419311 64.3782L0.925932 64.6677ZM1.03388 64.4868L1.48145 64.8612C5.21093 60.4024 7.68055 55.2786 9.72716 49.951L9.18247 49.7417L8.63778 49.5325C6.61156 54.8071 4.19727 59.7954 0.586305 64.1125L1.03388 64.4868ZM9.18247 49.7417L9.72726 49.9507C10.5202 47.8837 12.0428 46.2291 13.8903 44.8499L13.5412 44.3823L13.1922 43.9147C11.2411 45.3713 9.53691 47.1886 8.63768 49.5328L9.18247 49.7417ZM13.5412 44.3823L13.8898 44.8502C15.6163 43.564 17.3297 43.5196 18.6931 44.5051L19.0349 44.0322L19.3767 43.5593C17.5191 42.2166 15.2414 42.3881 13.1926 43.9144L13.5412 44.3823ZM19.0349 44.0322L18.6935 44.5054C20.1609 45.5641 20.7673 47.4357 20.1865 49.3348L20.7445 49.5054L21.3025 49.6761C22.0172 47.339 21.2815 44.9335 19.3763 43.559L19.0349 44.0322ZM20.7445 49.5054L20.1864 49.3353C19.591 51.2882 18.3317 52.8452 16.9192 54.4266L17.3544 54.8153L17.7896 55.204C19.2071 53.6169 20.6261 51.8947 21.3027 49.6756L20.7445 49.5054ZM17.3544 54.8153L16.9199 54.4259C16.3881 55.0193 15.8265 55.5783 15.2512 56.1751C14.6834 56.7642 14.113 57.3796 13.6041 58.0515L14.0693 58.4038L14.5344 58.7561C15 58.1414 15.531 57.5665 16.0915 56.985C16.6446 56.4111 17.2383 55.8191 17.7889 55.2047L17.3544 54.8153ZM14.0693 58.4038L13.6042 58.0514C12.7807 59.1384 12.0624 60.394 11.6099 61.6991L12.1612 61.8902L12.7126 62.0814C13.1178 60.9124 13.7708 59.764 14.5344 58.7562L14.0693 58.4038ZM12.1612 61.8902L11.6098 61.6995C10.9598 63.5783 11.8111 65.7527 13.243 66.7232L13.5704 66.2402L13.8978 65.7572C12.8848 65.0706 12.2423 63.4407 12.7127 62.081L12.1612 61.8902ZM13.5704 66.2402L13.242 66.7226C14.737 67.7404 16.8846 67.4892 18.4538 66.1502L18.075 65.7063L17.6963 65.2625C16.4413 66.3333 14.872 66.4206 13.8988 65.7579L13.5704 66.2402ZM18.075 65.7063L18.4536 66.1504C18.9326 65.742 19.3704 65.2973 19.7873 64.8598C20.2105 64.4158 20.6037 63.9884 21.0216 63.5791L20.6133 63.1623L20.2049 62.7454C19.768 63.1735 19.3472 63.6301 18.9425 64.0547C18.5316 64.4859 18.1277 64.8946 17.6965 65.2623L18.075 65.7063ZM20.6133 63.1623L21.0217 63.5789C22.7007 61.933 24.4036 61.6728 25.6134 62.4608L25.9319 61.9719L26.2504 61.483C24.3967 60.2755 22.091 60.8964 20.2048 62.7456L20.6133 63.1623ZM25.9319 61.9719L25.6135 62.4609C26.9714 63.3451 27.5795 65.2594 26.8005 67.2532L27.3439 67.4656L27.8874 67.6779C28.8297 65.2664 28.1541 62.7227 26.2503 61.483L25.9319 61.9719ZM27.3439 67.4656L26.8003 67.2537C25.4828 70.6337 23.3319 73.4746 20.6081 75.8926L20.9954 76.329L21.3828 76.7653C24.2197 74.247 26.4917 71.2587 27.8876 67.6775L27.3439 67.4656ZM20.9954 76.329L20.6079 75.8927C19.5253 76.8545 18.1942 77.3202 16.5813 77.4332L16.6221 78.0153L16.6629 78.5974C18.4634 78.4712 20.0615 77.9391 21.383 76.7652L20.9954 76.329Z" fill="#0A3C61" mask="url(#path-2-inside-1_732_9598)"/>
<mask id="path-4-inside-2_732_9598" fill="white">
<path d="M106.134 52.0845C105.848 55.2004 105.515 58.5001 105.25 61.8056C104.996 64.9682 104.827 68.1337 104.593 71.2992C104.512 72.4195 104.444 73.5544 104.22 74.6514C103.94 76.0314 103.082 77.0642 101.851 77.7498C100.01 78.7709 98.1164 78.38 97.1127 76.539C96.5234 75.4595 96.1616 74.1671 96.0537 72.9359C95.7007 68.9331 95.3885 64.9186 95.3097 60.9041C95.2718 59.034 95.7678 57.1464 96.0916 55.2762C96.2725 54.2376 96.6664 53.2369 96.8589 52.1983C97.4424 49.0795 96.255 46.6317 93.4104 45.1875C92.2843 44.6157 91.0152 44.3123 89.9065 43.7083C88.6228 43.0081 87.2545 42.2992 86.2596 41.2693C83.8352 38.7603 85.0138 35.1776 88.4536 34.5153C89.7373 34.2673 91.1873 34.2177 92.4301 34.559C95.0705 35.2797 97.6817 36.1812 100.194 37.2694C102.207 38.1388 103.511 39.8631 104.237 41.952C105.361 45.1729 105.962 48.493 106.134 52.0874"/>
</mask>
<path d="M105.25 61.8056L104.668 61.7589L104.668 61.7589L105.25 61.8056ZM104.593 71.2992L104.011 71.2563L104.011 71.2568L104.593 71.2992ZM104.22 74.6514L103.648 74.5343L103.648 74.5353L104.22 74.6514ZM101.851 77.7498L102.134 78.26L102.135 78.2596L101.851 77.7498ZM97.1127 76.539L97.6251 76.2597L97.6249 76.2594L97.1127 76.539ZM96.0537 72.9359L96.635 72.8849L96.6349 72.8846L96.0537 72.9359ZM95.3097 60.9041L95.8931 60.8927L95.8931 60.8923L95.3097 60.9041ZM96.0916 55.2762L95.5168 55.1761L95.5167 55.1767L96.0916 55.2762ZM96.8589 52.1983L96.2854 52.091L96.2852 52.0919L96.8589 52.1983ZM93.4104 45.1875L93.1462 45.7078L93.1463 45.7078L93.4104 45.1875ZM89.9065 43.7083L89.6271 44.2206L89.6274 44.2207L89.9065 43.7083ZM86.2596 41.2693L86.6793 40.8639L86.6792 40.8638L86.2596 41.2693ZM88.4536 34.5153L88.5639 35.0883L88.5643 35.0882L88.4536 34.5153ZM92.4301 34.559L92.2756 35.1217L92.2765 35.122L92.4301 34.559ZM100.194 37.2694L99.9617 37.8048L99.9623 37.8051L100.194 37.2694ZM104.237 41.952L103.686 42.1437L103.686 42.1441L104.237 41.952ZM106.134 52.0845L105.553 52.0312C105.267 55.1399 104.934 58.4492 104.668 61.7589L105.25 61.8056L105.831 61.8523C106.096 58.551 106.428 55.2609 106.715 52.1378L106.134 52.0845ZM105.25 61.8056L104.668 61.7589C104.415 64.9155 104.243 68.115 104.011 71.2563L104.593 71.2992L105.175 71.3421C105.41 68.1524 105.577 65.0209 105.831 61.8523L105.25 61.8056ZM104.593 71.2992L104.011 71.2568C103.928 72.3921 103.863 73.4829 103.648 74.5343L104.22 74.6514L104.791 74.7685C105.025 73.6259 105.095 72.4469 105.175 71.3416L104.593 71.2992ZM104.22 74.6514L103.648 74.5353C103.407 75.7227 102.674 76.6237 101.567 77.24L101.851 77.7498L102.135 78.2596C103.49 77.5047 104.472 76.3401 104.792 74.7675L104.22 74.6514ZM101.851 77.7498L101.568 77.2395C100.747 77.6946 99.9632 77.8095 99.3048 77.6505C98.6547 77.4935 98.0578 77.0534 97.6251 76.2597L97.1127 76.539L96.6004 76.8183C97.1714 77.8656 98.0229 78.5415 99.0308 78.7849C100.03 79.0263 101.113 78.8261 102.134 78.26L101.851 77.7498ZM97.1127 76.539L97.6249 76.2594C97.0782 75.2581 96.7367 74.045 96.635 72.8849L96.0537 72.9359L95.4724 72.9869C95.5866 74.2892 95.9686 75.661 96.6006 76.8186L97.1127 76.539ZM96.0537 72.9359L96.6349 72.8846C96.2821 68.8842 95.9715 64.8862 95.8931 60.8927L95.3097 60.9041L94.7263 60.9156C94.8055 64.951 95.1192 68.982 95.4724 72.9872L96.0537 72.9359ZM95.3097 60.9041L95.8931 60.8923C95.8567 59.0969 96.3308 57.315 96.6666 55.3758L96.0916 55.2762L95.5167 55.1767C95.2048 56.9777 94.6869 58.9711 94.7263 60.9159L95.3097 60.9041ZM96.0916 55.2762L96.6665 55.3764C96.7509 54.8918 96.8859 54.4104 97.0321 53.897C97.1755 53.3932 97.3304 52.856 97.4326 52.3046L96.8589 52.1983L96.2852 52.0919C96.1948 52.5792 96.0565 53.0616 95.9097 53.5775C95.7656 54.0837 95.6133 54.6221 95.5168 55.1761L96.0916 55.2762ZM96.8589 52.1983L97.4325 52.3056C97.7428 50.6471 97.589 49.1237 96.9441 47.8081C96.2992 46.4921 95.1882 45.4357 93.6746 44.6672L93.4104 45.1875L93.1463 45.7078C94.4772 46.3835 95.3823 47.273 95.8962 48.3217C96.4104 49.3707 96.5586 50.6307 96.2854 52.091L96.8589 52.1983ZM93.4104 45.1875L93.6746 44.6672C93.0762 44.3634 92.4433 44.1327 91.8561 43.9133C91.2565 43.6894 90.6988 43.4755 90.1856 43.1959L89.9065 43.7083L89.6274 44.2207C90.2228 44.5451 90.8541 44.7849 91.4478 45.0066C92.0538 45.2329 92.6185 45.4398 93.1462 45.7078L93.4104 45.1875ZM89.9065 43.7083L90.1859 43.1961C88.8732 42.48 87.5983 41.8153 86.6793 40.8639L86.2596 41.2693L85.84 41.6747C86.9107 42.7831 88.3724 43.5362 89.6271 44.2206L89.9065 43.7083ZM86.2596 41.2693L86.6792 40.8638C85.6036 39.7507 85.3635 38.4495 85.7123 37.3807C86.0616 36.3099 87.0314 35.3833 88.5639 35.0883L88.4536 34.5153L88.3433 33.9423C86.436 34.3095 85.0966 35.5054 84.6028 37.0188C84.1084 38.5342 84.4912 40.2789 85.84 41.6748L86.2596 41.2693ZM88.4536 34.5153L88.5643 35.0882C89.7937 34.8507 91.1472 34.8118 92.2756 35.1217L92.4301 34.559L92.5847 33.9964C91.2274 33.6236 89.6809 33.6839 88.3429 33.9424L88.4536 34.5153ZM92.4301 34.559L92.2765 35.122C94.8921 35.8358 97.477 36.7284 99.9617 37.8048L100.194 37.2694L100.426 36.734C97.8864 35.634 95.2488 34.7235 92.5838 33.9961L92.4301 34.559ZM100.194 37.2694L99.9623 37.8051C101.786 38.5928 102.998 40.1637 103.686 42.1437L104.237 41.952L104.788 41.7603C104.024 39.5624 102.627 37.6848 100.425 36.7337L100.194 37.2694ZM104.237 41.952L103.686 42.1441C104.789 45.3062 105.381 48.5703 105.551 52.1153L106.134 52.0874L106.716 52.0595C106.542 48.4158 105.932 45.0396 104.788 41.7599L104.237 41.952Z" fill="#0A3C61" mask="url(#path-4-inside-2_732_9598)"/>
<path d="M105.693 113.775C103.788 113.775 101.883 113.825 99.9807 113.767C95.9808 113.641 92.6315 111.958 89.7315 109.297C87.3917 107.15 86.2597 104.448 86.6769 101.315C87.2225 97.2389 87.4821 93.1894 87.0329 89.0844C86.8024 86.9692 87.4296 85.0203 89.0576 83.5149C91.5025 81.2538 94.8605 81.9365 96.1822 84.9941C96.9582 86.7913 97.0486 88.7022 96.7627 90.6103C96.5031 92.352 96.1005 94.0734 95.8029 95.8122C95.3594 98.4117 95.5636 100.871 97.3929 102.989C99.018 104.871 101.089 105.851 103.528 105.837C105.495 105.825 107.455 105.487 109.425 105.373C110.825 105.294 112.234 105.309 113.635 105.373C114.18 105.399 114.746 105.609 115.248 105.851C116.797 106.598 117.938 107.695 117.955 109.557C117.97 111.167 116.815 112.684 114.939 113.215C113.597 113.594 112.173 113.752 110.776 113.837C109.089 113.939 107.391 113.86 105.696 113.86V113.772L105.693 113.775Z" fill="#0A3C61"/>
<mask id="path-7-inside-3_732_9598" fill="white">
<path d="M26.5125 9.34009C28.05 9.47721 29.6809 9.49471 31.2622 9.7923C35.0608 10.51 36.2278 13.4946 34.0367 16.7155C33.602 17.3545 33.1031 17.9526 32.5926 18.5331C30.6612 20.7271 29.9406 23.277 30.2323 26.1653C30.3811 27.6358 30.5912 29.1237 30.4861 30.5824C30.4044 31.7349 30.0952 32.9835 29.5117 33.9667C27.7933 36.8638 23.8955 36.9338 21.8883 34.2176C21.0159 33.0361 20.6775 31.6678 20.7008 30.2382C20.7242 28.8349 20.8496 27.4257 21.0042 26.0282C21.2581 23.7088 20.8292 21.5528 19.6972 19.5134C19.1166 18.469 18.5215 17.4157 18.0984 16.3042C16.8439 12.9928 18.3231 10.3262 21.7949 9.7252C23.312 9.46262 24.8729 9.46554 26.5037 9.343"/>
</mask>
<path d="M31.2622 9.7923L31.3705 9.21894L31.3701 9.21886L31.2622 9.7923ZM34.0367 16.7155L34.5192 17.0438L34.5192 17.0437L34.0367 16.7155ZM32.5926 18.5331L33.0306 18.9187L33.0308 18.9185L32.5926 18.5331ZM30.2323 26.1653L29.6518 26.224L29.6518 26.2241L30.2323 26.1653ZM30.4861 30.5824L29.9041 30.5405L29.9041 30.5412L30.4861 30.5824ZM29.5117 33.9667L29.0099 33.669L29.0098 33.6691L29.5117 33.9667ZM21.8883 34.2176L21.4188 34.5642L21.419 34.5644L21.8883 34.2176ZM20.7008 30.2382L20.1174 30.2285L20.1174 30.2287L20.7008 30.2382ZM21.0042 26.0282L21.5842 26.0924L21.5843 26.0917L21.0042 26.0282ZM19.6972 19.5134L20.2074 19.2302L20.2072 19.2299L19.6972 19.5134ZM18.0984 16.3042L17.5528 16.5109L17.5531 16.5117L18.0984 16.3042ZM21.7949 9.7252L21.6954 9.15024L21.6954 9.15025L21.7949 9.7252ZM26.5125 9.34009L26.4607 9.92128C28.0617 10.0641 29.6082 10.0748 31.1543 10.3657L31.2622 9.7923L31.3701 9.21886C29.7536 8.91464 28.0383 8.89035 26.5643 8.75889L26.5125 9.34009ZM31.2622 9.7923L31.1539 10.3657C32.9255 10.7004 33.9571 11.5348 34.3534 12.5309C34.7516 13.5319 34.5811 14.8779 33.5543 16.3873L34.0367 16.7155L34.5192 17.0437C35.6835 15.3322 36.0249 13.5755 35.4378 12.0995C34.8486 10.6187 33.3975 9.60192 31.3705 9.21894L31.2622 9.7923ZM34.0367 16.7155L33.5543 16.3873C33.1399 16.9964 32.6597 17.5733 32.1544 18.1478L32.5926 18.5331L33.0308 18.9185C33.5466 18.3319 34.0642 17.7126 34.5192 17.0438L34.0367 16.7155ZM32.5926 18.5331L32.1546 18.1476C30.1068 20.4738 29.3452 23.1886 29.6518 26.224L30.2323 26.1653L30.8129 26.1067C30.536 23.3654 31.2156 20.9804 33.0306 18.9187L32.5926 18.5331ZM30.2323 26.1653L29.6518 26.2241C29.8041 27.729 30.0045 29.1467 29.9041 30.5405L30.4861 30.5824L31.0681 30.6243C31.1778 29.1007 30.9582 27.5425 30.8129 26.1066L30.2323 26.1653ZM30.4861 30.5824L29.9041 30.5412C29.8268 31.6311 29.5346 32.7849 29.0099 33.669L29.5117 33.9667L30.0135 34.2645C30.6558 33.1822 30.9821 31.8387 31.0682 30.6237L30.4861 30.5824ZM29.5117 33.9667L29.0098 33.6691C27.5205 36.1799 24.1358 36.2772 22.3575 33.8709L21.8883 34.2176L21.419 34.5644C23.6552 37.5905 28.066 37.5478 30.0135 34.2644L29.5117 33.9667ZM21.8883 34.2176L22.3577 33.8711C21.5762 32.8125 21.2626 31.5767 21.2842 30.2477L20.7008 30.2382L20.1174 30.2287C20.0924 31.7588 20.4556 33.2596 21.4188 34.5642L21.8883 34.2176ZM20.7008 30.2382L21.2842 30.2479C21.3071 28.8713 21.4303 27.483 21.5842 26.0924L21.0042 26.0282L20.4243 25.964C20.2689 27.3684 20.1412 28.7984 20.1174 30.2285L20.7008 30.2382ZM21.0042 26.0282L21.5843 26.0917C21.8511 23.6533 21.3985 21.376 20.2074 19.2302L19.6972 19.5134L19.187 19.7966C20.2599 21.7295 20.665 23.7643 20.4242 25.9647L21.0042 26.0282ZM19.6972 19.5134L20.2072 19.2299C19.6209 18.1752 19.0489 17.1611 18.6438 16.0966L18.0984 16.3042L17.5531 16.5117C17.994 17.6704 18.6123 18.7627 19.1872 19.7969L19.6972 19.5134ZM18.0984 16.3042L18.6441 16.0974C18.0614 14.5596 18.141 13.2522 18.6834 12.2833C19.2248 11.3163 20.2876 10.5783 21.8944 10.3001L21.7949 9.7252L21.6954 9.15025C19.8304 9.4731 18.4177 10.3689 17.6651 11.7133C16.9136 13.0558 16.8809 14.7374 17.5528 16.5109L18.0984 16.3042ZM21.7949 9.7252L21.8944 10.3001C23.3762 10.0437 24.8548 10.052 26.5475 9.92486L26.5037 9.343L26.46 8.76114C24.8909 8.87904 23.2478 8.88156 21.6954 9.15024L21.7949 9.7252Z" fill="#0A3C61" mask="url(#path-7-inside-3_732_9598)"/>
<path d="M91.888 13.6405C90.0646 13.6521 88.4337 13.2991 87.0975 12.0913C84.7255 9.95273 85.3353 6.75806 88.3608 5.7486C89.4169 5.39559 90.5664 5.24388 91.6838 5.15927C94.7063 4.92878 97.4692 3.9981 100.054 2.42848C101.314 1.6641 102.622 0.923048 103.993 0.397898C106.423 -0.532786 108.742 0.217016 109.974 2.14257C111.225 4.10021 111.001 6.51007 109.142 8.32476C108.209 9.23794 107.042 10.157 105.822 10.4866C101.469 11.6624 97.0491 12.5872 92.6495 13.5967C92.3782 13.658 92.0864 13.6288 91.8851 13.6405" fill="#0A3C61"/>
<mask id="path-10-inside-4_732_9598" fill="white">
<path d="M114.511 73.3762C118.548 73.5104 122.586 78.4031 121.93 82.3738C121.545 84.6991 119.689 86.1724 117.268 86.0732C114.041 85.9449 109.851 82.3534 109.227 79.185C108.597 75.9874 111.077 73.2625 114.514 73.3762"/>
</mask>
<path d="M121.93 82.3738L122.506 82.4692L122.506 82.469L121.93 82.3738ZM117.268 86.0732L117.292 85.4902L117.291 85.4902L117.268 86.0732ZM109.227 79.185L109.8 79.0722L109.8 79.0722L109.227 79.185ZM114.511 73.3762L114.491 73.9594C116.291 74.0192 118.167 75.1541 119.53 76.8076C120.895 78.4615 121.646 80.5121 121.354 82.2787L121.93 82.3738L122.506 82.469C122.87 80.2648 121.931 77.8838 120.431 76.0651C118.93 74.246 116.768 72.8675 114.53 72.7931L114.511 73.3762ZM121.93 82.3738L121.354 82.2785C121.019 84.3009 119.431 85.5779 117.292 85.4902L117.268 86.0732L117.244 86.6562C119.947 86.767 122.07 85.0972 122.506 82.4692L121.93 82.3738ZM117.268 86.0732L117.291 85.4902C115.858 85.4332 114.126 84.5899 112.651 83.326C111.176 82.0622 110.077 80.4791 109.8 79.0722L109.227 79.185L108.655 79.2978C109.002 81.0593 110.309 82.8561 111.892 84.2122C113.474 85.5683 115.45 86.5849 117.244 86.6563L117.268 86.0732ZM109.227 79.185L109.8 79.0722C109.25 76.2837 111.39 73.8567 114.494 73.9594L114.514 73.3762L114.533 72.7931C110.763 72.6683 107.944 75.6911 108.655 79.2978L109.227 79.185Z" fill="#0A3C61" mask="url(#path-10-inside-4_732_9598)"/>
<path d="M107.666 88.9058C111.087 88.7251 113.729 90.1893 115.482 93.0269L115.649 93.3062C116.487 94.7522 116.408 96.2663 115.668 97.4263C114.929 98.5846 113.508 99.4227 111.594 99.4634C108.932 99.0519 106.264 97.864 104.551 95.2456L104.388 94.9868C103.51 93.5419 103.512 92.0681 104.122 90.9419C104.733 89.8147 105.976 88.9945 107.666 88.9058Z" stroke="#0A3C61" stroke-width="0.583501"/>
</svg>
