<svg width="278" height="661" viewBox="0 0 278 661" fill="none" xmlns="http://www.w3.org/2000/svg">
<g clip-path="url(#clip0_2001_7535)">
<path d="M-175.919 511.81C-191.769 510.86 -206.159 513.76 -220.159 518.86C-223.779 520.18 -227.389 521.69 -230.719 523.6C-242.159 530.14 -245.63 539.44 -241.479 551.85C-240.409 555.06 -238.719 558.13 -238.089 561.41C-237.249 565.86 -236.229 570.59 -236.919 574.95C-238.81 586.87 -251.569 591.03 -260.699 583.13C-264.889 579.5 -267.299 574.8 -268.709 569.59C-269.789 565.63 -270.62 561.58 -271.289 557.53C-273.079 546.59 -278.089 537.53 -286.37 530.13C-289.96 526.93 -293.35 523.41 -296.32 519.64C-300.72 514.06 -302.079 507.44 -301.089 500.44C-299.399 488.47 -287.84 483.07 -277.75 489.7C-274.14 492.07 -271.109 495.3 -267.779 498.1C-259.759 504.86 -253.62 505.42 -244.589 500.1C-242.089 498.63 -239.689 496.98 -237.339 495.28C-228.259 488.68 -218.159 485.18 -206.909 484.94C-202.559 484.85 -198.169 484.81 -193.869 484.22C-190.079 483.7 -186.179 482.93 -182.699 481.42C-172.599 477.01 -168.719 468.04 -172.029 457.58C-174.639 449.34 -178.999 442.14 -185.539 436.43C-194.009 429.03 -203.249 429.88 -210.089 438.77C-212.429 441.81 -214.229 445.3 -216.039 448.71C-221.689 459.33 -230.579 464.9 -242.479 464.68C-249.19 464.56 -256.169 463.97 -262.49 461.93C-274.2 458.14 -285.789 453.73 -296.919 448.5C-316.82 439.15 -325.609 421.55 -321.659 401.03C-319.729 390.99 -313.94 384.09 -306.32 382.76C-298.799 381.45 -291.059 385.99 -286.009 395.16C-283.799 399.171 -282.19 403.51 -280.44 407.75C-277.83 414.07 -274.739 420.05 -269.579 424.71C-264.149 429.61 -257.96 432.53 -250.44 431.76C-238.47 430.54 -231.72 419.57 -236.44 408.55C-237.94 405.06 -240.269 401.84 -242.639 398.82C-248.899 390.82 -255.45 383.06 -261.75 375.09C-268.15 366.99 -275.709 360.34 -284.99 355.76C-295.409 350.61 -303.88 343.35 -310.44 333.68C-316.45 324.83 -323.899 317.23 -332.199 310.45C-338.059 305.66 -343.109 300.18 -346.5 293.3C-350.299 285.56 -351.25 277.57 -348.469 269.36C-346.839 264.56 -344.57 259.98 -342.93 255.19C-341.37 250.65 -339.46 246.01 -339.12 241.3C-338.159 228.09 -349.59 220.09 -361.82 225.06C-364.49 226.15 -367.109 227.52 -369.49 229.14C-376.38 233.83 -384.049 236.11 -392.18 235.24C-409.049 233.43 -419.549 241.19 -428.449 255C-443.869 278.91 -452.039 304.59 -452.769 332.88C-452.909 338.16 -453.429 343.57 -454.769 348.65C-456.879 356.63 -462.039 362.36 -470.32 364.34C-484.13 367.64 -496.459 355.57 -493.029 341.76C-491.849 337 -488.799 332.64 -486.24 328.31C-484.159 324.78 -481.199 321.76 -479.259 318.18C-474.589 309.59 -477.24 301.33 -485.919 296.77C-488.039 295.65 -490.399 294.97 -492.649 294.09C-494.899 293.21 -497.269 292.56 -499.389 291.42C-508.499 286.54 -509.129 276.72 -500.449 271.21C-497.059 269.06 -493.01 267.46 -489.06 266.78C-473.18 264.05 -461.71 255.29 -453.12 242.07C-447.19 232.951 -440.729 224.16 -435 214.92C-425.07 198.92 -426.609 182.66 -434.99 166.58C-437.979 160.84 -442.38 156.42 -448.75 154.37C-459 151.07 -468.289 157.97 -467.56 168.71C-467.289 172.75 -466.199 176.85 -464.789 180.67C-458.88 196.72 -462.38 210.41 -475.49 221.05C-483.899 227.87 -492.739 234.5 -502.269 239.55C-518.499 248.15 -530.939 259.87 -538.719 276.55C-540.25 279.82 -542.219 282.94 -544.409 285.81C-546.44 288.47 -548.779 291.04 -551.43 293.06C-558.14 298.16 -566.369 298.52 -572.449 294.4C-578.519 290.28 -581.68 282.33 -579.089 274.45C-577.399 269.29 -574.799 263.98 -571.229 259.95C-554.51 241.13 -537.579 222.49 -514.649 210.69C-509.759 208.171 -505.079 204.92 -500.979 201.24C-493 194.1 -490.319 184.91 -494.399 174.91C-497.569 167.13 -502.099 159.89 -506.039 152.42C-509.639 145.59 -513.549 138.9 -516.74 131.89C-518.08 128.94 -518.499 125.28 -518.339 121.99C-517.749 109.68 -505.579 102.86 -494.779 108.79C-491.449 110.62 -488.31 113.15 -485.74 115.95C-477.959 124.41 -468.529 128.33 -457.149 127.09C-436.519 124.84 -421.919 134.831 -409.919 150.1C-403.529 158.241 -400.63 167.48 -401.75 177.92C-402.19 182 -402.549 186.141 -402.329 190.22C-401.879 198.57 -397.019 204.65 -390.019 206.3C-383.449 207.85 -376.599 204.56 -372.299 197.72C-369.25 192.87 -367.57 187.491 -368 181.85C-368.65 173.43 -369.419 164.96 -371.099 156.7C-372.779 148.45 -377.64 141.59 -383.82 135.96C-392.93 127.65 -402.19 119.49 -411.68 111.62C-418.479 105.98 -426.569 102.67 -435.159 100.66C-439.629 99.6105 -444.15 98.7405 -448.62 97.6505C-456.299 95.7805 -463.45 92.5604 -468.57 86.4504C-479.82 73.0004 -493 71.5004 -508.24 78.7004C-519.44 83.9904 -531.45 85.2405 -543.69 84.5905C-550.28 84.2405 -556.659 83.1104 -562.19 79.0604C-567.22 75.3804 -570.459 70.7304 -569.399 64.2604C-568.279 57.4204 -564.089 52.6605 -557.399 51.1605C-552.779 50.1304 -547.829 50.3304 -543.029 50.4504C-536.269 50.6304 -529.529 51.5804 -522.769 51.6105C-512.099 51.6605 -502.46 48.0205 -495.57 39.9305C-484.59 27.0505 -471.059 20.1304 -454.339 18.2704C-444.87 17.2104 -436.31 13.0705 -428.219 7.93048C-423.969 5.23047 -419.479 2.6004 -414.74 1.00043C-403.469 -2.80957 -393.69 4.2605 -392.99 16.1805C-392.2 29.7205 -403.32 41.7104 -417.68 42.2405C-422.45 42.4105 -427.289 41.4704 -432.06 40.7504C-437.159 39.9804 -442.18 39.6104 -447.07 41.6304C-452.549 43.9005 -456.76 47.5204 -457.18 53.7504C-457.599 60.1505 -453.529 64.0204 -448.18 66.5305C-445.81 67.6404 -443.169 68.3204 -440.579 68.8204C-437.499 69.4105 -434.349 69.6905 -431.209 69.9305C-418.619 70.8705 -407.68 75.6605 -398.909 84.6705C-387.269 96.6305 -374.059 106.05 -358.709 112.7C-354.369 114.58 -350.43 117.71 -346.789 120.83C-340.799 125.98 -337.809 132.71 -338.139 140.75C-338.169 141.48 -338.109 142.21 -338.199 142.92C-341.309 167.66 -333.799 190.34 -324.339 212.52C-322.109 217.74 -318.709 222.73 -314.859 226.93C-309.25 233.04 -301.57 234.081 -294.94 230.88C-288.349 227.701 -283.93 220.06 -284.979 212.24C-285.51 208.25 -286.709 204.07 -288.699 200.61C-295.179 189.34 -299.149 177.34 -301.589 164.6C-303.039 157.04 -306.009 149.78 -308.159 142.35C-310.479 134.32 -308.979 127.02 -303.549 120.61C-298.029 114.09 -289.349 111.23 -282.039 113.68C-273.57 116.521 -268.939 122.7 -268.149 131.4C-267.74 135.92 -268.159 140.6 -268.759 145.13C-270.279 156.65 -267.89 167.2 -262 177.15C-259.169 181.93 -256.63 186.891 -254.18 191.88C-250.74 198.891 -250.199 206.34 -251.949 213.85C-255.739 230.111 -263.569 243.98 -276.599 254.72C-282.13 259.28 -288.289 262.37 -295.359 263.71C-299.399 264.47 -303.479 265.171 -307.389 266.41C-313.289 268.29 -317.609 272.01 -318.529 278.52C-319.479 285.25 -316.53 290.42 -311 293.87C-307.979 295.75 -304.419 296.83 -301.009 297.97C-298.969 298.65 -296.749 298.88 -294.579 299.09C-277.589 300.73 -265.84 309.82 -258.63 324.89C-251.97 338.81 -243.279 351.13 -232.109 361.8C-226.259 367.38 -222.329 374.34 -219.219 381.79C-217.359 386.241 -215.549 390.801 -212.979 394.85C-209.709 400.01 -204.929 403.42 -198.359 402.2C-192.129 401.05 -189.169 396.42 -187.499 390.76C-187.159 389.6 -186.799 388.43 -186.659 387.23C-185.069 373.9 -178.009 363.92 -167.779 355.73C-164.019 352.72 -160.489 349.35 -157.209 345.82C-150.449 338.56 -148.289 329.85 -150.449 320.24C-153.409 307.08 -158.759 295.111 -167.689 284.72C-174.609 276.671 -181.109 268.23 -187.279 259.59C-192.739 251.95 -199.439 246.66 -208.719 244.63C-212.239 243.861 -215.779 242.77 -219.019 241.23C-227.379 237.26 -230.949 228.91 -226.969 220.59C-220.559 207.17 -209.739 198.43 -195.069 195.62C-184.159 193.53 -176.279 200.48 -175.509 211.71C-175.329 214.35 -175.559 217.03 -175.599 219.69C-175.829 234.9 -169.069 243.25 -154.279 246.07C-151.189 246.66 -148.069 247.16 -145.039 247.97C-134.899 250.671 -129.409 257.01 -128.419 267.46C-128.079 271.05 -128.079 274.76 -128.609 278.31C-130.259 289.38 -128.439 299.99 -125.059 310.47C-123.129 316.451 -121.219 322.451 -119.409 328.47C-115.279 342.28 -118.779 353.74 -130.189 362.67C-134.379 365.95 -138.669 369.1 -142.839 372.41C-149.149 377.421 -154.369 383.41 -158.489 390.36C-165.089 401.51 -164.789 412.4 -157.299 423.02C-155.349 425.79 -153.419 428.58 -151.329 431.24C-145.609 438.54 -142.779 446.86 -142.339 456.07C-142.079 461.39 -141.819 466.7 -141.449 472.01C-140.779 481.52 -135.999 488.47 -127.629 492.73C-123.129 495.02 -118.349 496.92 -113.489 498.31C-96.2895 503.23 -83.6194 513.49 -74.8195 529.08C-71.7794 534.47 -67.8195 539.64 -63.2794 543.81C-56.9195 549.65 -49.0695 552.1 -40.4295 548.76C-26.5295 543.39 -23.9395 527.11 -35.6995 518.01C-39.2794 515.24 -43.7295 513.62 -47.6895 511.31C-51.2195 509.25 -55.0794 507.46 -57.9995 504.71C-66.0194 497.16 -63.8694 486.1 -53.7895 481.68C-48.2995 479.27 -42.3595 478.57 -36.7095 480.14C-26.2595 483.05 -15.9695 486.57 -5.73947 490.18C-3.09946 491.11 -0.729462 493.12 1.46054 494.98C10.3806 502.55 12.1205 511.12 6.84055 521.53C4.65054 525.84 1.89053 529.86 -0.239471 534.19C-5.27948 544.41 -2.99945 553.49 5.72055 558.91C14.3506 564.27 25.2805 562.41 31.4505 553.61C34.5605 549.17 36.6905 543.78 38.1805 538.52C40.6205 529.92 42.2105 521.08 44.1005 512.33C44.5105 510.44 44.7405 508.51 44.9005 506.58C46.0905 492.05 41.3605 483.78 28.2505 477.5C25.6405 476.25 22.8405 475.37 20.2705 474.04C17.0605 472.38 13.6805 470.83 10.9406 468.55C2.66055 461.65 3.38055 451.25 12.4706 445.49C14.8606 443.97 17.7105 442.77 20.4805 442.35C24.9905 441.68 29.6305 441.46 34.1905 441.6C47.1505 442.02 56.1205 448.17 60.5205 460.62C61.9705 464.72 63.3405 468.9 65.3105 472.76C70.7205 483.39 80.5905 484.88 88.9005 476.37C91.7605 473.44 94.1905 470.08 96.7105 466.84C103.111 458.61 111.521 454.87 121.641 457.32C138.761 461.46 155.791 466.05 172.711 470.96C181.051 473.38 187.481 479.02 192.861 485.81C196.311 490.17 199.541 494.76 203.421 498.71C216.971 512.5 235.261 508.47 242.141 490.39C245.621 481.23 246.461 471.87 242.731 462.74C236.391 447.21 233.991 431.16 234.601 414.48C234.971 404.37 232.331 394.86 227.581 385.9C225.201 381.42 223.011 376.82 221.031 372.16C220.001 369.74 219.291 367.09 219.001 364.49C217.321 349.4 230.731 339.73 244.691 345.84C250.331 348.31 253.961 352.72 256.511 358.1C260.921 367.391 263.461 377.23 263.931 387.47C264.441 398.58 264.631 409.72 264.581 420.84C264.531 431.47 266.411 441.59 271.751 450.82C278.691 462.81 279.181 474.99 274.011 487.74C270.921 495.35 268.661 503.3 265.631 510.94C259.331 526.84 247.431 535.61 230.471 537.17C224.471 537.72 218.381 537.59 212.351 537.36C202.751 536.99 194.481 533.21 187.771 526.36C183.371 521.87 179.211 517.15 175.121 512.37C153.251 486.81 116.881 484.28 91.9305 506.97C87.9005 510.64 84.8305 515.48 81.7705 520.08C75.4905 529.54 69.5005 539.19 63.4305 548.79C61.8805 551.24 60.2405 553.68 59.1205 556.32C56.7905 561.82 56.7805 567.35 61.2105 571.86C65.6105 576.34 71.0705 576.54 76.6905 574.39C78.2605 573.79 79.7605 572.96 81.2005 572.1C82.6505 571.23 83.9805 570.17 85.3805 569.22C98.7705 560.02 109.111 561.03 119.721 573.62C125.451 580.42 130.511 587.93 134.981 595.63C141.351 606.61 148.501 616.74 158.271 625.03C162.271 628.42 165.781 632.62 168.711 636.98C172.481 642.58 173.101 648.74 168.761 654.6C165.001 659.68 158.031 661.85 151.081 659.93C142.851 657.66 135.881 653.02 131.321 645.96C126.111 637.88 122.001 629.09 117.451 620.59C114.721 615.48 112.291 610.19 109.311 605.24C106.631 600.8 102.661 597.63 97.6805 595.83C91.9205 593.76 86.6005 594.49 82.1705 598.71C77.5505 603.12 76.0805 608.8 78.5205 614.66C80.0505 618.33 82.8905 621.51 85.4005 624.7C88.0805 628.11 91.5605 630.97 93.8205 634.62C99.5205 643.82 94.9205 653.67 84.2305 655.22C79.9805 655.83 75.5605 655.2 71.2205 655.18C63.2705 655.16 55.2205 654.39 47.3805 655.34C33.8305 656.99 20.8506 655.45 8.06055 651.12C-8.65945 645.46 -25.4395 639.95 -42.0695 634.04C-46.0795 632.61 -50.1595 630.45 -53.2794 627.61C-62.2394 619.46 -59.0995 606.64 -47.5495 602.98C-41.0195 600.91 -34.5095 601.8 -28.3094 604.05C-21.9594 606.36 -15.8694 609.36 -9.65945 612.07C0.310547 616.42 10.1606 621.1 20.3105 624.99C25.1805 626.85 30.6005 627.94 35.8105 628.08C43.9405 628.3 50.3105 623.23 52.2905 616.31C54.0605 610.12 51.4405 603.19 45.0905 598.67C42.3805 596.74 39.2005 595.34 36.0405 594.25C32.6305 593.07 29.0305 592.34 25.4605 591.76C13.6905 589.82 2.54053 586.04 -8.57947 581.79C-17.7795 578.27 -27.4195 575.64 -37.0795 573.64C-47.6395 571.45 -57.1695 574.68 -65.3195 581.82C-67.8694 584.05 -70.3394 586.41 -73.1295 588.3C-75.8994 590.18 -78.8595 592.04 -82.0095 593.06C-90.1695 595.69 -97.9695 590.88 -99.2895 582.41C-99.7995 579.15 -99.3295 575.68 -98.9395 572.34C-98.5795 569.23 -97.6095 566.19 -97.1095 563.09C-95.1995 551.23 -99.0395 541.38 -108.679 534.44C-114.909 529.95 -121.999 526.64 -128.739 522.85C-143.659 514.47 -159.539 510.12 -175.919 511.78" fill="#BEC2E6"/>
<path d="M136.401 196.22C140.131 196.22 143.541 195.92 146.891 196.28C157.691 197.43 163.011 206.15 158.791 216.09C157.111 220.04 154.801 223.9 152.051 227.2C142.011 239.31 141.031 253.28 143.921 267.71C144.911 272.67 147.991 277.49 151.051 281.69C153.851 285.53 158.021 288.34 161.401 291.79C164.931 295.41 168.751 298.91 171.521 303.07C176.641 310.76 175.341 318.38 168.651 324.62C162.571 330.3 154.781 330.63 147.471 325.28C145.151 323.58 143.151 321.42 141.121 319.35C139.261 317.45 137.631 315.33 135.791 313.4C126.041 303.19 118.331 301.98 106.001 308.74C102.611 310.6 99.4613 312.98 95.9213 314.48C91.9713 316.16 87.7913 317.73 83.5813 318.26C77.8613 318.98 73.0913 316.43 70.3513 311.2C67.7013 306.13 68.8713 301.06 72.3413 296.97C74.9413 293.91 78.2812 291.29 81.7213 289.17C85.8213 286.65 90.3513 284.81 94.7413 282.78C112.751 274.45 119.151 259.08 120.471 240.59C120.491 240.35 120.471 240.11 120.461 239.86C120.031 231.87 116.241 226.3 109.771 224.14C103.681 222.1 96.7713 224.52 92.1213 231.05C89.3413 234.95 87.4313 239.47 85.1413 243.72C82.4013 248.82 79.9813 254.14 76.8613 259C72.0413 266.49 65.3913 272 57.0113 275.33C50.4613 277.93 43.8213 278.33 37.1313 276.15C32.3013 274.57 27.6413 272.47 22.7513 271.12C19.0813 270.1 15.1212 269.19 11.3913 269.5C1.75125 270.31 -2.94875 279.77 1.67125 288.26C4.10124 292.71 7.99124 295.54 12.5112 297.52C16.7213 299.36 21.0912 300.83 25.2513 302.78C35.8013 307.72 39.4713 314.68 37.9113 326.16C37.5213 329.03 37.0013 331.92 37.0113 334.8C37.0513 344.1 42.5312 350.12 51.8313 349.88C56.9913 349.75 62.2113 347.96 67.2213 346.35C72.5013 344.66 77.5013 342.1 82.7513 340.29C90.8512 337.49 99.2413 336.47 107.791 337.5C126.361 339.73 137.661 353.83 135.521 372.42C134.231 383.63 130.261 394.11 124.311 403.61C120.361 409.92 115.671 415.88 110.621 421.35C104.361 428.14 96.0713 431.67 87.0113 433.14C79.8713 434.3 72.9513 433.53 66.8713 429.22C57.0913 422.3 57.0413 409.59 67.1713 403.22C71.5713 400.46 76.9513 399.23 81.9313 397.43C85.3313 396.2 88.8713 395.33 92.2313 394C94.2313 393.21 96.1313 392.04 97.8513 390.73C104.501 385.67 106.581 378.47 103.341 372.27C100.271 366.4 93.5713 363.97 85.6713 366.35C81.5313 367.6 77.5013 369.37 73.6313 371.33C65.1313 375.62 56.3213 378.79 46.8713 380.14C46.3913 380.21 45.9212 380.32 45.4413 380.41C28.4413 383.77 25.7013 386.68 23.2913 403.95C23.0213 405.86 22.7612 407.79 22.3313 409.67C19.7812 420.9 11.4513 425.76 0.521255 422.06C-3.79875 420.59 -7.91873 418.42 -11.9387 416.22C-33.4287 404.44 -56.4887 402.45 -80.2887 405.09C-87.4287 405.88 -93.5487 409.39 -99.6387 412.94C-103.169 414.99 -106.819 417.15 -110.699 418.24C-121.989 421.39 -131.469 412.47 -128.659 401.06C-127.549 396.57 -124.969 392.04 -121.929 388.49C-114.139 379.37 -103.749 374.69 -91.7987 374.98C-83.1487 375.18 -74.4987 376.63 -65.8987 377.83C-55.6087 379.27 -45.3987 381.38 -35.0687 382.51C-29.1087 383.16 -22.9487 382.99 -16.9787 382.28C-3.89874 380.73 5.09126 371.87 7.28127 358.94C9.83127 343.89 6.67126 330.54 -4.96873 319.94C-8.89873 316.36 -12.8387 312.76 -16.9687 309.42C-28.1987 300.32 -33.5687 288.94 -31.3387 274.34C-29.4887 262.25 -30.1087 250.33 -32.9288 238.35C-36.4488 223.38 -30.7087 211.33 -19.4187 201.59C-15.6588 198.35 -11.3288 196.34 -6.20876 196.38C3.38124 196.45 9.64125 203.85 7.83125 213.23C7.33125 215.82 6.22127 218.28 5.37126 220.8C4.60126 223.09 3.59126 225.32 3.06126 227.66C0.971268 236.94 5.62125 244.45 15.0712 245.54C20.7012 246.19 26.8213 245.89 32.2313 244.31C38.8613 242.37 45.3413 239.25 51.2113 235.56C57.9313 231.33 64.0013 226.04 70.1713 220.98C74.1413 217.72 77.2913 213.72 78.4913 208.52C79.5613 203.92 78.5713 199.79 75.1513 196.53C71.5913 193.14 67.2813 193.08 62.9613 194.8C60.7313 195.69 58.6713 197.01 56.5513 198.18C54.4413 199.35 52.4313 200.75 50.2413 201.75C44.8713 204.2 39.5013 204.88 34.6213 200.61C30.1613 196.7 28.8813 190.27 31.6313 183.92C32.8513 181.09 34.6613 178.39 36.7013 176.07C39.0813 173.36 41.8113 170.88 44.7113 168.73C55.5713 160.68 62.8213 150.09 67.4513 137.52C68.6213 134.35 69.8013 131.1 71.5813 128.26C73.6113 125.03 75.9913 121.85 78.8213 119.31C83.0613 115.5 88.2113 114.26 93.6413 116.81C99.1113 119.38 102.781 123.81 102.431 129.86C102.161 134.52 100.371 139.18 98.7413 143.65C97.4213 147.26 95.1713 150.51 93.6213 154.05C89.4713 163.47 91.2313 172.08 97.8313 179.69C108.081 191.51 120.511 198.46 136.421 196.22" fill="#BEC2E6"/>
<mask id="path-3-inside-1_2001_7535" fill="white">
<path d="M208.1 206.92C212.38 208.45 216.99 209.4 220.87 211.62C230.55 217.16 240.31 222.41 251 225.78C252.37 226.21 253.67 226.93 254.93 227.63C265.37 233.38 267.89 242.42 261.92 252.63C261.8 252.84 261.7 253.07 261.55 253.25C248.97 268.29 240.6 285.62 233.62 303.79C230.72 311.35 225.19 317.3 218.68 322.16C212.21 326.98 205.37 327.35 199.85 323.36C194.07 319.19 191.77 311.86 193.99 304.6C196.17 297.45 200.76 291.83 205.61 286.4C209.32 282.26 213.53 278.51 216.87 274.1C219.59 270.51 221.94 266.39 223.41 262.15C225.33 256.6 222.77 250.08 218.58 247.24C214.35 244.36 207.98 244.94 203.14 249.07C200.02 251.73 197.37 254.92 194.44 257.79C188.33 263.78 181.46 265.29 176.21 261.87C170.62 258.23 168.42 250.59 171.37 243.04C176.02 231.11 183.6 221.12 193.13 212.66C197.25 209 202.27 207.29 208.12 206.88"/>
</mask>
<path d="M220.87 211.62L221.863 209.885L221.863 209.884L220.87 211.62ZM251 225.78L250.399 227.688L250.401 227.689L251 225.78ZM254.93 227.63L253.959 229.379L253.965 229.382L254.93 227.63ZM261.92 252.63L260.194 251.621L260.188 251.629L260.184 251.638L261.92 252.63ZM261.55 253.25L263.084 254.534L263.086 254.531L261.55 253.25ZM233.62 303.79L231.753 303.073L231.753 303.074L233.62 303.79ZM218.68 322.16L219.875 323.764L219.876 323.763L218.68 322.16ZM199.85 323.36L201.022 321.739L201.02 321.738L199.85 323.36ZM193.99 304.6L195.903 305.185L195.903 305.184L193.99 304.6ZM205.61 286.4L204.121 285.066L204.118 285.068L205.61 286.4ZM216.87 274.1L215.276 272.893L215.276 272.893L216.87 274.1ZM223.41 262.15L225.3 262.805L225.3 262.804L223.41 262.15ZM218.58 247.24L217.454 248.894L217.458 248.896L218.58 247.24ZM203.14 249.07L204.438 250.592L204.438 250.592L203.14 249.07ZM194.44 257.79L193.041 256.362L193.04 256.362L194.44 257.79ZM176.21 261.87L177.302 260.195L177.301 260.194L176.21 261.87ZM171.37 243.04L173.233 243.768L173.233 243.767L171.37 243.04ZM193.13 212.66L194.458 214.156L194.458 214.156L193.13 212.66ZM208.1 206.92L207.427 208.804C209.586 209.576 211.97 210.248 214.017 210.914C216.148 211.607 218.116 212.349 219.877 213.356L220.87 211.62L221.863 209.884C219.744 208.672 217.467 207.829 215.253 207.11C212.955 206.363 210.894 205.795 208.773 205.037L208.1 206.92ZM220.87 211.62L219.877 213.356C229.57 218.904 239.489 224.248 250.399 227.688L251 225.78L251.601 223.873C241.132 220.572 231.531 215.417 221.863 209.885L220.87 211.62ZM251 225.78L250.401 227.689C251.544 228.047 252.667 228.661 253.959 229.379L254.93 227.63L255.901 225.882C254.673 225.2 253.196 224.373 251.599 223.872L251 225.78ZM254.93 227.63L253.965 229.382C258.866 232.081 261.649 235.403 262.653 238.996C263.655 242.586 262.991 246.837 260.194 251.621L261.92 252.63L263.647 253.64C266.819 248.214 267.88 242.84 266.505 237.92C265.131 233.002 261.434 228.929 255.895 225.878L254.93 227.63ZM261.92 252.63L260.184 251.638C260.137 251.72 260.095 251.798 260.066 251.853C260.032 251.916 260.015 251.95 259.996 251.984C259.958 252.052 259.968 252.025 260.014 251.97L261.55 253.25L263.086 254.531C263.282 254.296 263.417 254.064 263.497 253.919C263.637 253.665 263.577 253.761 263.657 253.623L261.92 252.63ZM261.55 253.25L260.016 251.967C247.233 267.25 238.768 284.812 231.753 303.073L233.62 303.79L235.487 304.508C242.432 286.429 250.707 269.331 263.084 254.534L261.55 253.25ZM233.62 303.79L231.753 303.074C229.035 310.159 223.816 315.83 217.484 320.558L218.68 322.16L219.876 323.763C226.564 318.77 232.405 312.542 235.487 304.507L233.62 303.79ZM218.68 322.16L217.485 320.556C211.568 324.965 205.695 325.117 201.022 321.739L199.85 323.36L198.678 324.981C205.045 329.583 212.853 328.996 219.875 323.764L218.68 322.16ZM199.85 323.36L201.02 321.738C195.991 318.11 193.912 311.695 195.903 305.185L193.99 304.6L192.077 304.016C189.628 312.026 192.15 320.271 198.68 324.982L199.85 323.36ZM193.99 304.6L195.903 305.184C197.944 298.49 202.26 293.153 207.102 287.733L205.61 286.4L204.118 285.068C199.26 290.508 194.396 296.411 192.077 304.017L193.99 304.6ZM205.61 286.4L207.099 287.735C208.922 285.701 210.847 283.785 212.819 281.74C214.765 279.72 216.72 277.611 218.464 275.308L216.87 274.1L215.276 272.893C213.68 275 211.86 276.97 209.939 278.964C208.043 280.931 206.008 282.96 204.121 285.066L205.61 286.4ZM216.87 274.1L218.464 275.308C221.287 271.583 223.749 267.279 225.3 262.805L223.41 262.15L221.52 261.495C220.131 265.502 217.893 269.438 215.276 272.893L216.87 274.1ZM223.41 262.15L225.3 262.804C227.528 256.365 224.61 248.911 219.702 245.585L218.58 247.24L217.458 248.896C220.93 251.249 223.132 256.836 221.52 261.496L223.41 262.15ZM218.58 247.24L219.706 245.587C214.582 242.098 207.22 242.959 201.842 247.549L203.14 249.07L204.438 250.592C208.74 246.921 214.119 246.622 217.454 248.894L218.58 247.24ZM203.14 249.07L201.842 247.548C200.201 248.948 198.7 250.472 197.271 251.972C195.821 253.494 194.473 254.959 193.041 256.362L194.44 257.79L195.84 259.219C197.337 257.752 198.78 256.187 200.167 254.731C201.575 253.253 202.959 251.853 204.438 250.592L203.14 249.07ZM194.44 257.79L193.04 256.362C187.285 262.004 181.448 262.896 177.302 260.195L176.21 261.87L175.118 263.546C181.472 267.685 189.375 265.557 195.84 259.219L194.44 257.79ZM176.21 261.87L177.301 260.194C172.647 257.164 170.563 250.602 173.233 243.768L171.37 243.04L169.507 242.312C166.277 250.578 168.593 259.297 175.119 263.546L176.21 261.87ZM171.37 243.04L173.233 243.767C177.749 232.182 185.122 222.444 194.458 214.156L193.13 212.66L191.802 211.165C182.079 219.797 174.291 230.039 169.507 242.314L171.37 243.04ZM193.13 212.66L194.458 214.156C198.169 210.859 202.731 209.263 208.26 208.875L208.12 206.88L207.98 204.885C201.809 205.318 196.331 207.141 191.802 211.165L193.13 212.66Z" fill="#BEC2E6" mask="url(#path-3-inside-1_2001_7535)"/>
<mask id="path-5-inside-2_2001_7535" fill="white">
<path d="M174.22 442.271C168.95 441.801 163.36 441.741 157.94 440.721C144.92 438.261 140.92 428.031 148.43 416.991C149.92 414.801 151.63 412.751 153.38 410.761C160 403.241 162.47 394.501 161.47 384.601C160.96 379.561 160.24 374.461 160.6 369.461C160.88 365.511 161.94 361.231 163.94 357.861C169.83 347.931 183.19 347.691 190.07 357.001C193.06 361.051 194.22 365.741 194.14 370.641C194.06 375.451 193.63 380.281 193.1 385.071C192.23 393.021 193.7 400.411 197.58 407.401C199.57 410.981 201.61 414.591 203.06 418.401C207.36 429.751 202.29 438.891 190.39 440.951C185.19 441.851 179.84 441.841 174.25 442.261"/>
</mask>
<path d="M157.94 440.721L157.569 442.686L157.57 442.686L157.94 440.721ZM148.43 416.991L146.776 415.865L146.776 415.866L148.43 416.991ZM153.38 410.761L151.879 409.439L151.878 409.44L153.38 410.761ZM161.47 384.601L163.46 384.4L163.46 384.399L161.47 384.601ZM160.6 369.461L162.595 369.604L162.595 369.602L160.6 369.461ZM163.94 357.861L165.66 358.881L165.66 358.881L163.94 357.861ZM190.07 357.001L191.679 355.813L191.679 355.812L190.07 357.001ZM194.14 370.641L196.14 370.674L196.14 370.673L194.14 370.641ZM193.1 385.071L191.112 384.851L191.112 384.853L193.1 385.071ZM197.58 407.401L195.831 408.371L195.832 408.372L197.58 407.401ZM203.06 418.401L204.93 417.692L204.929 417.689L203.06 418.401ZM190.39 440.951L190.731 442.921L190.731 442.921L190.39 440.951ZM174.22 442.271L174.398 440.278C168.91 439.789 163.609 439.752 158.31 438.755L157.94 440.721L157.57 442.686C163.111 443.729 168.99 443.812 174.042 444.263L174.22 442.271ZM157.94 440.721L158.311 438.755C152.239 437.608 148.703 434.748 147.345 431.334C145.98 427.903 146.564 423.289 150.084 418.115L148.43 416.991L146.776 415.866C142.786 421.732 141.615 427.753 143.628 432.812C145.647 437.888 150.621 441.373 157.569 442.686L157.94 440.721ZM148.43 416.991L150.084 418.116C151.504 416.028 153.15 414.051 154.882 412.081L153.38 410.761L151.878 409.44C150.11 411.45 148.336 413.573 146.776 415.865L148.43 416.991ZM153.38 410.761L154.881 412.082C161.9 404.109 164.511 394.803 163.46 384.4L161.47 384.601L159.48 384.802C160.429 394.198 158.1 402.372 151.879 409.439L153.38 410.761ZM161.47 384.601L163.46 384.399C162.938 379.241 162.251 374.382 162.595 369.604L160.6 369.461L158.605 369.317C158.229 374.539 158.982 379.88 159.48 384.802L161.47 384.601ZM160.6 369.461L162.595 369.602C162.86 365.866 163.862 361.911 165.66 358.881L163.94 357.861L162.22 356.84C160.018 360.55 158.9 365.155 158.605 369.319L160.6 369.461ZM163.94 357.861L165.66 358.881C170.765 350.275 182.366 349.941 188.462 358.189L190.07 357.001L191.679 355.812C184.014 345.44 168.895 345.586 162.22 356.84L163.94 357.861ZM190.07 357.001L188.461 358.188C191.14 361.817 192.215 366.053 192.14 370.608L194.14 370.641L196.14 370.673C196.225 365.428 194.98 360.284 191.679 355.813L190.07 357.001ZM194.14 370.641L192.14 370.607C192.062 375.325 191.64 380.084 191.112 384.851L193.1 385.071L195.088 385.29C195.621 380.477 196.058 375.576 196.14 370.674L194.14 370.641ZM193.1 385.071L191.112 384.853C190.197 393.211 191.749 401.016 195.831 408.371L197.58 407.401L199.329 406.43C195.651 399.805 194.263 392.83 195.088 385.288L193.1 385.071ZM197.58 407.401L195.832 408.372C197.842 411.987 199.802 415.463 201.191 419.112L203.06 418.401L204.929 417.689C203.418 413.718 201.299 409.974 199.328 406.429L197.58 407.401ZM203.06 418.401L201.19 419.109C203.187 424.38 202.914 428.861 201.055 432.182C199.199 435.497 195.556 438.026 190.049 438.98L190.39 440.951L190.731 442.921C197.124 441.815 201.966 438.744 204.545 434.136C207.121 429.535 207.233 423.771 204.93 417.692L203.06 418.401ZM190.39 440.951L190.049 438.98C184.97 439.859 179.902 439.83 174.1 440.266L174.25 442.261L174.4 444.255C179.778 443.851 185.41 443.842 190.731 442.921L190.39 440.951Z" fill="#BEC2E6" mask="url(#path-5-inside-2_2001_7535)"/>
</g>
<defs>
<clipPath id="clip0_2001_7535">
<rect width="857.46" height="660.65" fill="white" transform="matrix(-1 0 0 -1 277.461 660.65)"/>
</clipPath>
</defs>
</svg>
